<?xml version="1.0" encoding="UTF-8"?>
<svg preserveAspectRatio="xMidYMid meet" version="1.1" xmlns="http://www.w3.org/2000/svg" width="100%" height="100%" viewBox="0 0 512 512">
<path d="M0 0 C1.01891486 -0.00525911 1.01891486 -0.00525911 2.05841386 -0.01062447 C4.33318488 -0.01992382 6.60769906 -0.01501901 8.88248062 -0.01015663 C10.53045429 -0.01389364 12.17842619 -0.01849536 13.82639527 -0.02388728 C18.35418289 -0.03612655 22.88189667 -0.03585571 27.40969706 -0.03349853 C32.29327567 -0.03309059 37.17683054 -0.04412729 42.0603981 -0.05361366 C51.62816372 -0.07022988 61.19590469 -0.0757235 70.76368353 -0.07683842 C78.54091888 -0.07778863 86.3181461 -0.08189756 94.09537888 -0.08823967 C116.14428884 -0.10585402 138.19317934 -0.11507827 160.24209639 -0.11357872 C162.02526426 -0.11345885 162.02526426 -0.11345885 163.84445572 -0.11333656 C165.03468551 -0.1132548 166.22491531 -0.11317304 167.45121267 -0.1130888 C186.74022408 -0.11227592 206.02915739 -0.13141374 225.3181462 -0.1596133 C245.12298734 -0.18833856 264.9277904 -0.20215378 284.7326529 -0.20042574 C295.85194206 -0.1997617 306.97114937 -0.2052601 318.09041977 -0.22678185 C327.55787613 -0.24498894 337.02521352 -0.24934484 346.4926798 -0.235763 C351.32227914 -0.22923092 356.15165022 -0.22912488 360.98122787 -0.2464695 C365.40539591 -0.2621946 369.8291546 -0.25934233 374.25331262 -0.24190123 C375.85087984 -0.2388301 377.44847756 -0.24246804 379.0460088 -0.25362138 C390.28156539 -0.32684709 399.97485024 0.58128382 408.51144791 8.55414391 C414.48501089 15.19820885 417.28951741 22.259273 417.29996681 31.214571 C417.30347289 31.89384757 417.30697896 32.57312415 417.31059128 33.27298486 C417.31989063 35.54775588 417.31498582 37.82227006 417.31012344 40.09705162 C417.31386045 41.74502529 417.31846217 43.39299719 417.32385409 45.04096627 C417.33609337 49.56875389 417.33582252 54.09646767 417.33346534 58.62426805 C417.3330574 63.50784667 417.3440941 68.39140154 417.35358047 73.2749691 C417.3701967 82.84273472 417.37569031 92.41047569 417.37680523 101.97825453 C417.37775544 109.75548988 417.38186438 117.5327171 417.38820648 125.30994987 C417.40582083 147.35885984 417.41504509 169.40775034 417.41354553 191.45666739 C417.41346562 192.64544597 417.41338571 193.83422455 417.41330338 195.05902672 C417.41322161 196.24925651 417.41313985 197.43948631 417.41305561 198.66578367 C417.41224273 217.95479507 417.43138056 237.24372838 417.45958011 256.5327172 C417.48830538 276.33755834 417.50212059 296.1423614 417.50039256 315.9472239 C417.49972852 327.06651306 417.50522691 338.18572037 417.52674866 349.30499077 C417.54495576 358.77244713 417.54931165 368.23978452 417.53572981 377.7072508 C417.52919773 382.53685014 417.52909169 387.36622122 417.54643631 392.19579887 C417.56216141 396.61996691 417.55930914 401.0437256 417.54186805 405.46788362 C417.53879691 407.06545083 417.54243485 408.66304856 417.5535882 410.26057979 C417.6268139 421.49613639 416.71868299 431.18942124 408.74582291 439.72601891 C402.10175796 445.69958188 395.04069381 448.50408841 386.08539581 448.51453781 C385.06648095 448.51979692 385.06648095 448.51979692 384.02698195 448.52516228 C381.75221093 448.53446163 379.47769675 448.52955682 377.20291519 448.52469444 C375.55494152 448.52843145 373.90696963 448.53303317 372.25900054 448.53842509 C367.73121292 448.55066437 363.20349914 448.55039352 358.67569876 448.54803634 C353.79212014 448.5476284 348.90856528 448.5586651 344.02499771 448.56815147 C334.4572321 448.5847677 324.88949112 448.59026131 315.32171229 448.59137623 C307.54447693 448.59232644 299.76724972 448.59643538 291.99001694 448.60277748 C269.94110697 448.62039183 247.89221647 448.62961608 225.84329942 448.62811653 C224.06013155 448.62799666 224.06013155 448.62799666 222.24094009 448.62787437 C221.0507103 448.62779261 219.8604805 448.62771085 218.63418314 448.62762661 C199.34517174 448.62681373 180.05623843 448.64595156 160.76724961 448.67415111 C140.96240847 448.70287637 121.15760542 448.71669159 101.35274291 448.71496356 C90.23345375 448.71429952 79.11424645 448.71979791 67.99497604 448.74131966 C58.52751969 448.75952676 49.06018229 448.76388265 39.59271601 448.75030081 C34.76311667 448.74376873 29.93374559 448.74366269 25.10416794 448.76100731 C20.6799999 448.77673241 16.25624121 448.77388014 11.8320832 448.75643905 C10.23451598 448.75336791 8.63691825 448.75700585 7.03938702 448.7681592 C-4.19616958 448.8413849 -13.88945442 447.93325399 -22.42605209 439.96039391 C-28.39961507 433.31632896 -31.2041216 426.25526481 -31.214571 417.29996681 C-31.21807707 416.62069024 -31.22158315 415.94141366 -31.22519547 415.24155295 C-31.23449481 412.96678193 -31.22959001 410.69226775 -31.22472763 408.41748619 C-31.22846464 406.76951252 -31.23306636 405.12154062 -31.23845828 403.47357154 C-31.25069755 398.94578392 -31.25042671 394.41807014 -31.24806952 389.89026976 C-31.24766159 385.00669114 -31.25869828 380.12313628 -31.26818466 375.23956871 C-31.28480088 365.67180309 -31.2902945 356.10406212 -31.29140942 346.53628328 C-31.29235963 338.75904793 -31.29646856 330.98182072 -31.30281067 323.20458794 C-31.32042502 301.15567797 -31.32964927 279.10678747 -31.32814972 257.05787042 C-31.32806981 255.86909184 -31.3279899 254.68031326 -31.32790756 253.45551109 C-31.3278258 252.2652813 -31.32774404 251.0750515 -31.3276598 249.84875414 C-31.32684691 230.55974274 -31.34598474 211.27080943 -31.3741843 191.98182061 C-31.40290956 172.17697947 -31.41672478 152.37217642 -31.41499674 132.56731391 C-31.4143327 121.44802475 -31.4198311 110.32881744 -31.44135284 99.20954704 C-31.45955994 89.74209069 -31.46391584 80.27475329 -31.450334 70.80728701 C-31.44380192 65.97768767 -31.44369588 61.14831659 -31.4610405 56.31873894 C-31.4767656 51.8945709 -31.47391332 47.47081221 -31.45647223 43.04665419 C-31.4534011 41.44908698 -31.45703904 39.85148925 -31.46819238 38.25395802 C-31.54141809 27.01840142 -30.63328718 17.32511658 -22.66042709 8.78851891 C-16.01636215 2.81495593 -8.955298 0.0104494 0 0 Z M-6.95730209 25.25726891 C-9.38774049 28.58809797 -9.20881652 31.79333256 -9.21177769 35.8262682 C-9.21498417 36.48785133 -9.21819064 37.14943446 -9.22149429 37.83106557 C-9.22982457 40.05764764 -9.22385954 42.28396285 -9.2179985 44.51054955 C-9.22101781 46.11911225 -9.22490618 47.72767353 -9.22959107 49.33623224 C-9.23990828 53.76418018 -9.23767981 58.19204749 -9.23341048 62.62000215 C-9.23095 67.3924055 -9.23994894 72.1647891 -9.24744797 76.93718529 C-9.26021577 86.28965303 -9.26198608 95.6420921 -9.2596477 104.99456709 C-9.25786676 112.59407063 -9.25960938 120.19356544 -9.26387215 127.79306793 C-9.26446734 128.87347324 -9.26506252 129.95387855 -9.26567575 131.06702342 C-9.26688746 133.26165863 -9.2681016 135.45629383 -9.26931813 137.65092904 C-9.28020162 158.24525085 -9.2780273 178.83955629 -9.27193328 199.43387903 C-9.26676301 218.28665867 -9.27802103 237.13938666 -9.2970315 255.99215608 C-9.31638906 275.33699404 -9.32466959 294.68180754 -9.32090825 314.02665526 C-9.31899308 324.89261071 -9.32151439 335.75852219 -9.33562279 346.62446976 C-9.34751104 355.87434767 -9.34897026 365.12415454 -9.33683262 374.37403338 C-9.33092601 379.09562308 -9.32989352 383.81708268 -9.34183502 388.53866386 C-9.35263336 392.85835348 -9.3496631 397.17780341 -9.33557334 401.49748153 C-9.33290964 403.06271634 -9.33534499 404.62796958 -9.3433092 406.19318639 C-9.3533661 408.31655888 -9.34503646 410.43909024 -9.3320322 412.56242847 C-9.33208722 413.74308901 -9.33214224 414.92374955 -9.33219892 416.14018768 C-8.91034012 419.64773441 -8.12655989 421.48495236 -5.95730209 424.25726891 C-2.62647303 426.6877073 0.57876156 426.50878333 4.6116972 426.5117445 C5.27328033 426.51495098 5.93486346 426.51815746 6.61649457 426.5214611 C8.84307664 426.52979138 11.06939185 426.52382635 13.29597855 426.51796532 C14.90454125 426.52098462 16.51310253 426.52487299 18.12166125 426.52955788 C22.54960918 426.53987509 26.97747649 426.53764663 31.40543115 426.53337729 C36.17783451 426.53091681 40.9502181 426.53991576 45.72261429 426.54741478 C55.07508203 426.56018259 64.4275211 426.56195289 73.77999609 426.55961452 C81.37949963 426.55783357 88.97899444 426.55957619 96.57849693 426.56383896 C97.65890224 426.56443415 98.73930755 426.56502934 99.85245242 426.56564256 C102.04708763 426.56685428 104.24172283 426.56806841 106.43635804 426.56928494 C127.03067985 426.58016843 147.62498529 426.57799412 168.21930803 426.57190009 C187.07208767 426.56672983 205.92481566 426.57798784 224.77758508 426.59699831 C244.12242304 426.61635587 263.46723654 426.6246364 282.81208426 426.62087506 C293.67803971 426.6189599 304.54395119 426.6214812 315.40989876 426.6355896 C324.65977667 426.64747785 333.90958354 426.64893707 343.15946238 426.63679943 C347.88105208 426.63089282 352.60251168 426.62986033 357.32409286 426.64180183 C361.64378248 426.65260018 365.96323242 426.64962992 370.28291053 426.63554015 C371.84814534 426.63287645 373.41339858 426.6353118 374.9786154 426.64327601 C377.10198788 426.65333291 379.22451924 426.64500327 381.34785748 426.63199902 C382.52851801 426.63205403 383.70917855 426.63210905 384.92561668 426.63216573 C388.43316341 426.21030694 390.27038136 425.4265267 393.04269791 423.25726891 C395.4731363 419.92643984 395.29421233 416.72120525 395.2971735 412.68826962 C395.30037998 412.02668648 395.30358646 411.36510335 395.3068901 410.68347225 C395.31522038 408.45689017 395.30925535 406.23057496 395.30339432 404.00398827 C395.30641362 402.39542556 395.31030199 400.78686429 395.31498688 399.17830557 C395.32530409 394.75035763 395.32307563 390.32249032 395.31880629 385.89453566 C395.31634581 381.12213231 395.32534476 376.34974871 395.33284378 371.57735252 C395.34561159 362.22488478 395.34738189 352.87244571 395.34504352 343.51997072 C395.34326257 335.92046718 395.34500519 328.32097237 395.34926796 320.72146988 C395.35016074 319.10086192 395.35016074 319.10086192 395.35107156 317.4475144 C395.35228328 315.25287919 395.35349741 313.05824398 395.35471394 310.86360877 C395.36559743 290.26928696 395.36342312 269.67498152 395.35732909 249.08065879 C395.35215883 230.22787914 395.36341684 211.37515115 395.38242731 192.52238173 C395.40178487 173.17754377 395.4100654 153.83273027 395.40630406 134.48788255 C395.4043889 123.6219271 395.4069102 112.75601563 395.4210186 101.89006805 C395.43290685 92.64019014 395.43436608 83.39038327 395.42222843 74.14050443 C395.41632182 69.41891473 395.41528933 64.69745514 395.42723083 59.97587395 C395.43802918 55.65618433 395.43505892 51.3367344 395.42096915 47.01705628 C395.41830545 45.45182147 395.4207408 43.88656823 395.42870501 42.32135142 C395.43876191 40.19797893 395.43043227 38.07544757 395.41742802 35.95210934 C395.41751054 34.18111853 395.41751054 34.18111853 395.41759473 32.37435013 C394.99573594 28.86680341 394.2119557 27.02958545 392.04269791 24.25726891 C388.71186884 21.82683051 385.50663425 22.00575448 381.47369862 22.00279331 C380.48132392 21.99798359 380.48132392 21.99798359 379.46890125 21.99307671 C377.24231917 21.98474643 375.01600396 21.99071146 372.78941727 21.99657249 C371.18085456 21.99355319 369.57229329 21.98966482 367.96373457 21.98497993 C363.53578663 21.97466272 359.10791933 21.97689119 354.67996466 21.98116052 C349.90756131 21.983621 345.13517771 21.97462206 340.36278152 21.96712303 C331.01031378 21.95435522 321.65787472 21.95258492 312.30539972 21.95492329 C304.70589618 21.95670424 297.10640137 21.95496162 289.50689888 21.95069885 C288.42649357 21.95010366 287.34608826 21.94950847 286.2329434 21.94889525 C284.03830819 21.94768354 281.84367298 21.9464694 279.64903777 21.94525287 C259.05471596 21.93436938 238.46041052 21.9365437 217.86608779 21.94263772 C199.01330814 21.94780798 180.16058015 21.93654997 161.30781073 21.9175395 C141.96297277 21.89818194 122.61815927 21.88990141 103.27331156 21.89366275 C92.4073561 21.89557791 81.54144463 21.89305661 70.67549706 21.87894821 C61.42561914 21.86705996 52.17581227 21.86560074 42.92593343 21.87773838 C38.20434373 21.88364499 33.48288414 21.88467748 28.76130295 21.87273598 C24.44161333 21.86193764 20.1221634 21.86490789 15.80248528 21.87899766 C14.23725047 21.88166136 12.67199723 21.87922601 11.10678042 21.8712618 C8.98340793 21.8612049 6.86087657 21.86953454 4.73753834 21.8825388 C2.96654753 21.88245627 2.96654753 21.88245627 1.15977913 21.88237208 C-2.34776759 22.30423088 -4.18498555 23.08801111 -6.95730209 25.25726891 Z " fill="currentColor" transform="translate(62.95730209350586,31.74273109436035)"/>
<path d="M0 0 C7.26 0 14.52 0 22 0 C22.06794405 29.92003362 22.12159612 59.84005866 22.15319599 89.76015279 C22.15694771 93.29957464 22.16083072 96.83899634 22.16479492 100.37841797 C22.16558185 101.0829967 22.16636878 101.78757544 22.16717956 102.51350504 C22.18020211 113.89350668 22.2038384 125.27346245 22.23145839 136.65343696 C22.25960062 148.34687968 22.27619481 160.04029852 22.28226548 171.73377371 C22.28616524 178.29485663 22.29528563 184.85583581 22.31719017 191.41688538 C22.33767191 197.60234026 22.34381028 203.78764942 22.33932304 209.97313499 C22.34014304 212.23367799 22.34603853 214.49422626 22.35761642 216.75473976 C22.49158291 244.27929909 17.54645088 267.91180621 -2.27734375 288.34765625 C-20.49138835 305.55800958 -41.31247367 310.70067064 -65.59375 310.3046875 C-83.26566816 309.68308805 -100.02584647 301.90435491 -113 290 C-114.13308594 289.00419922 -114.13308594 289.00419922 -115.2890625 287.98828125 C-127.89698989 276.26854119 -137.54495862 258.33924309 -139 241 C-139.18719855 235.32654693 -139.09012934 229.67814828 -139 224 C-131.74 224 -124.48 224 -117 224 C-116.7525 226.7225 -116.505 229.445 -116.25 232.25 C-114.49549292 248.92382585 -108.38089209 262.43543047 -96 274 C-81.3483786 285.05742856 -65.9360269 289.00117291 -47.79296875 286.5703125 C-32.90530732 283.34166303 -19.71401158 275.40407842 -11.1875 262.6875 C0.14092871 243.4238276 -0.72159221 224.26970166 -0.875 202.5625 C-0.88505097 200.07747757 -0.89417307 197.5924512 -0.90234375 195.10742188 C-0.92418677 189.0715274 -0.95749619 183.03578252 -1 177 C-1.53739304 177.54763504 -2.07478607 178.09527008 -2.62846375 178.65950012 C-3.33976944 179.37877182 -4.05107513 180.09804352 -4.78393555 180.83911133 C-5.48632858 181.55174637 -6.18872162 182.26438141 -6.91239929 182.99861145 C-22.6477728 198.08415739 -45.81581472 204.41980211 -67.0859375 204.21484375 C-88.43004043 203.04326125 -107.0119728 195.18174626 -123 181 C-123.71027344 180.38511719 -124.42054688 179.77023437 -125.15234375 179.13671875 C-140.47487461 164.96717041 -149.31874145 142.64644944 -150.16113281 122.06274414 C-150.18102599 120.63695158 -150.19474345 119.21106295 -150.203125 117.78515625 C-150.20882507 117.011754 -150.21452515 116.23835175 -150.22039795 115.44151306 C-150.22979862 113.80859725 -150.23636218 112.17566289 -150.24023438 110.54272461 C-150.24985081 108.10039013 -150.28088341 105.65893131 -150.3125 103.21679688 C-150.49114397 77.01307968 -143.30648126 55.16408218 -125 36 C-124.45988281 35.38511719 -123.91976562 34.77023438 -123.36328125 34.13671875 C-111.00416846 20.59461783 -90.51673226 12.00590817 -72.46923828 10.8359375 C-49.3426563 9.84920334 -26.65942242 14.42767481 -8.94165039 30.36669922 C-6.24585849 32.86251854 -3.59795149 35.40204851 -1 38 C-0.67 25.46 -0.34 12.92 0 0 Z M-110 53 C-110.63164062 53.61230469 -111.26328125 54.22460938 -111.9140625 54.85546875 C-127.08469991 70.52733867 -128.40168677 92.13458948 -128.14453125 112.70703125 C-127.70025793 132.80768989 -122.84163832 148.76175179 -108.55078125 163.53125 C-95.57049269 175.75758146 -80.68556299 181.47436598 -63 182 C-44.26975293 181.43696652 -28.89988469 173.62516924 -16.125 160.0625 C0.41337149 140.68299778 1.45333481 116.93576221 -0.27734375 92.5625 C-1.90360796 74.60574428 -9.80236571 59.12980389 -23.42285156 47.26367188 C-49.6492274 26.25009272 -86.9454893 28.87418304 -110 53 Z " fill="currentColor" transform="translate(320,106)"/>
</svg>
